<svg xmlns="http://www.w3.org/2000/svg" xmlns:xlink="http://www.w3.org/1999/xlink" width="150" zoomAndPan="magnify" viewBox="0 0 112.5 30.000001" height="40" preserveAspectRatio="xMidYMid meet" version="1.0"><defs><g/><clipPath id="af3bce810a"><path d="M 1.574219 0 L 110.445312 0 L 110.445312 29.03125 L 1.574219 29.03125 Z M 1.574219 0 " clip-rule="nonzero"/></clipPath><clipPath id="c6b9167b23"><path d="M 48 0 L 110.445312 0 L 110.445312 28 L 48 28 Z M 48 0 " clip-rule="nonzero"/></clipPath></defs><g clip-path="url(#af3bce810a)"><path fill="#ffffff" d="M 1.574219 0 L 110.445312 0 L 110.445312 29.03125 L 1.574219 29.03125 Z M 1.574219 0 " fill-opacity="1" fill-rule="nonzero"/><path fill="#ffffff" d="M 1.574219 0 L 110.445312 0 L 110.445312 29.03125 L 1.574219 29.03125 Z M 1.574219 0 " fill-opacity="1" fill-rule="nonzero"/></g><g clip-path="url(#c6b9167b23)"><path stroke-linecap="butt" transform="matrix(0.665662, 0, 0, 0.665662, 48.846255, 4.589695)" fill="none" stroke-linejoin="miter" d="M 13.041291 28.255705 C 10.828972 28.255705 9.144793 27.58086 7.994621 26.231169 C 6.84445 24.87561 6.269365 22.974307 6.269365 20.527259 L 6.269365 7.452864 C 6.269365 5.093839 6.84445 3.3099 7.994621 2.112783 C 9.144793 0.90393 10.828972 0.299503 13.041291 0.299503 C 15.259478 0.299503 16.937789 0.90393 18.08796 2.112783 C 19.244 3.3099 19.819085 5.093839 19.819085 7.452864 L 19.819085 20.527259 C 19.819085 22.99778 19.244 24.904951 18.08796 26.242905 C 16.937789 27.586728 15.259478 28.255705 13.041291 28.255705 Z M 13.041291 23.209035 C 13.534221 23.209035 13.86871 22.99778 14.03302 22.569399 C 14.203199 22.146888 14.291222 21.548329 14.291222 20.779592 L 14.291222 7.358972 C 14.291222 6.760414 14.209067 6.27922 14.050625 5.909522 C 13.892183 5.533956 13.569431 5.346173 13.0765 5.346173 C 12.161058 5.346173 11.703337 6.038623 11.703337 7.423523 L 11.703337 20.808933 C 11.703337 21.601143 11.797228 22.193833 11.990879 22.604609 C 12.184531 23.009516 12.530756 23.209035 13.041291 23.209035 Z M 22.019668 27.997503 L 22.019668 0.557705 L 33.010845 0.557705 L 33.010845 5.891917 L 27.541663 5.891917 L 27.541663 10.26961 L 32.723302 10.26961 L 32.723302 15.54514 L 27.541663 15.54514 L 27.541663 27.997503 Z M 34.765443 27.997503 L 34.765443 0.557705 L 45.750751 0.557705 L 45.750751 5.891917 L 40.287438 5.891917 L 40.287438 10.26961 L 45.463208 10.26961 L 45.463208 15.54514 L 40.287438 15.54514 L 40.287438 27.997503 Z M 47.505349 27.997503 L 47.505349 0.557705 L 58.496526 0.557705 L 58.496526 5.856708 L 53.091895 5.856708 L 53.091895 11.196788 L 58.267665 11.196788 L 58.267665 16.372559 L 53.091895 16.372559 L 53.091895 22.663291 L 58.848619 22.663291 L 58.848619 27.997503 Z M 60.661899 0.557705 L 69.094532 0.557705 C 70.438354 0.557705 71.477029 0.862852 72.210557 1.473147 C 72.949952 2.071706 73.442883 2.922598 73.701085 4.019955 C 73.953418 5.117312 74.082519 6.519817 74.082519 8.227469 C 74.082519 9.782547 73.877131 10.997269 73.472224 11.871634 C 73.067317 12.74013 72.36313 13.344557 71.365533 13.684914 C 72.19882 13.86096 72.797379 14.271736 73.167077 14.934845 C 73.542643 15.592085 73.730426 16.489923 73.730426 17.616622 L 73.665875 27.997503 L 68.302322 27.997503 L 68.302322 17.264528 C 68.302322 16.495791 68.149748 16.002861 67.850469 15.791605 C 67.55119 15.580349 67.011313 15.474721 66.219104 15.474721 L 66.219104 27.997503 L 60.661899 27.997503 Z M 67.557058 10.715594 C 68.331663 10.715594 68.713097 9.882307 68.713097 8.227469 C 68.713097 7.49981 68.677888 6.954065 68.613338 6.596104 C 68.548787 6.232274 68.431423 5.979941 68.261244 5.844971 C 68.096934 5.704134 67.850469 5.633716 67.527717 5.633716 L 66.248445 5.633716 L 66.248445 10.715594 Z M 82.409524 28.255705 C 79.921398 28.255705 78.119855 27.639542 77.016629 26.407216 C 75.907535 25.169021 75.350055 23.179694 75.350055 20.427499 L 75.350055 17.739854 L 80.748817 17.739854 L 80.748817 21.161027 C 80.748817 22.528322 81.188934 23.209035 82.063299 23.209035 C 82.550361 23.209035 82.890718 23.068198 83.084369 22.780655 C 83.272152 22.493113 83.371912 22.00605 83.371912 21.325337 C 83.371912 20.427499 83.266284 19.688103 83.04916 19.107149 C 82.837904 18.520327 82.567966 18.027397 82.233477 17.634226 C 81.904857 17.241055 81.312166 16.624892 80.461274 15.791605 L 78.096382 13.426712 C 76.265497 11.642773 75.350055 9.659315 75.350055 7.488073 C 75.350055 5.146653 75.889931 3.362714 76.969683 2.142124 C 78.043568 0.915666 79.616251 0.299503 81.675996 0.299503 C 84.146517 0.299503 85.924588 0.956744 87.016077 2.265357 C 88.101697 3.579838 88.641574 5.627847 88.641574 8.415252 L 83.04916 8.415252 L 83.019819 6.525685 C 83.019819 6.167724 82.920059 5.880181 82.714671 5.668925 C 82.515152 5.451801 82.233477 5.346173 81.875516 5.346173 C 81.447135 5.346173 81.124383 5.463537 80.913127 5.698266 C 80.701871 5.932995 80.596244 6.249879 80.596244 6.660654 C 80.596244 7.552624 81.106779 8.479802 82.121981 9.436322 L 85.320161 12.499533 C 86.065425 13.227193 86.681588 13.919643 87.16865 14.565147 C 87.661581 15.216519 88.06062 15.985256 88.354031 16.871358 C 88.65331 17.751591 88.800016 18.802002 88.800016 20.010855 C 88.800016 22.716105 88.307085 24.769982 87.315356 26.166619 C 86.329495 27.563255 84.692261 28.255705 82.409524 28.255705 Z M 82.409524 28.255705 " stroke="#000000" stroke-width="1.198418" stroke-opacity="1" stroke-miterlimit="4"/></g><g fill="#000000" fill-opacity="1"><g transform="translate(3.662493, 23.231034)"><g><path d="M 5.0625 0.171875 C 3.726562 0.171875 2.660156 -0.242188 1.859375 -1.078125 C 1.054688 -1.921875 0.65625 -3.070312 0.65625 -4.53125 L 0.65625 -12.96875 C 0.65625 -14.789062 1.015625 -16.160156 1.734375 -17.078125 C 2.460938 -18.003906 3.601562 -18.46875 5.15625 -18.46875 C 6.5 -18.46875 7.582031 -18.097656 8.40625 -17.359375 C 9.226562 -16.617188 9.640625 -15.550781 9.640625 -14.15625 L 9.640625 -11.015625 L 6 -11.015625 L 6 -13.71875 C 6 -14.238281 5.9375 -14.597656 5.8125 -14.796875 C 5.6875 -14.992188 5.46875 -15.09375 5.15625 -15.09375 C 4.820312 -15.09375 4.59375 -14.976562 4.46875 -14.75 C 4.351562 -14.53125 4.296875 -14.203125 4.296875 -13.765625 L 4.296875 -4.578125 C 4.296875 -4.097656 4.367188 -3.742188 4.515625 -3.515625 C 4.660156 -3.296875 4.875 -3.1875 5.15625 -3.1875 C 5.71875 -3.1875 6 -3.648438 6 -4.578125 L 6 -7.875 L 9.6875 -7.875 L 9.6875 -4.4375 C 9.6875 -1.363281 8.144531 0.171875 5.0625 0.171875 Z M 5.0625 0.171875 "/></g></g></g><g fill="#000000" fill-opacity="1"><g transform="translate(13.759271, 23.231034)"><g><path d="M 0.8125 -18.296875 L 6.4375 -18.296875 C 7.320312 -18.296875 8.007812 -18.09375 8.5 -17.6875 C 9 -17.28125 9.332031 -16.710938 9.5 -15.984375 C 9.664062 -15.253906 9.75 -14.320312 9.75 -13.1875 C 9.75 -12.144531 9.613281 -11.332031 9.34375 -10.75 C 9.070312 -10.164062 8.601562 -9.765625 7.9375 -9.546875 C 8.5 -9.429688 8.898438 -9.148438 9.140625 -8.703125 C 9.390625 -8.265625 9.515625 -7.671875 9.515625 -6.921875 L 9.484375 0 L 5.90625 0 L 5.90625 -7.15625 C 5.90625 -7.664062 5.800781 -7.988281 5.59375 -8.125 C 5.394531 -8.269531 5.035156 -8.34375 4.515625 -8.34375 L 4.515625 0 L 0.8125 0 Z M 5.40625 -11.515625 C 5.914062 -11.515625 6.171875 -12.070312 6.171875 -13.1875 C 6.171875 -13.664062 6.148438 -14.023438 6.109375 -14.265625 C 6.066406 -14.503906 5.988281 -14.671875 5.875 -14.765625 C 5.757812 -14.859375 5.597656 -14.90625 5.390625 -14.90625 L 4.53125 -14.90625 L 4.53125 -11.515625 Z M 5.40625 -11.515625 "/></g></g></g><g fill="#000000" fill-opacity="1"><g transform="translate(23.919958, 23.231034)"><g><path d="M 0.3125 0 L 2.09375 -18.296875 L 8.28125 -18.296875 L 10.03125 0 L 6.5625 0 L 6.296875 -2.953125 L 4.09375 -2.953125 L 3.875 0 Z M 4.359375 -5.875 L 6.03125 -5.875 L 5.21875 -15.1875 L 5.046875 -15.1875 Z M 4.359375 -5.875 "/></g></g></g><g fill="#000000" fill-opacity="1"><g transform="translate(34.251052, 23.231034)"><g><path d="M 0.34375 0 L 0.34375 -3.328125 L 4.515625 -14.921875 L 0.75 -14.921875 L 0.75 -18.296875 L 8.390625 -18.296875 L 8.390625 -15.09375 L 4.109375 -3.359375 L 8.203125 -3.359375 L 8.203125 0 Z M 0.34375 0 "/></g></g></g><g fill="#000000" fill-opacity="1"><g transform="translate(42.984551, 23.231034)"><g><path d="M 3.03125 0 L 3.03125 -6.03125 L 0.109375 -18.296875 L 3.734375 -18.296875 L 4.75 -12.09375 L 5.765625 -18.296875 L 9.390625 -18.296875 L 6.46875 -6.03125 L 6.46875 0 Z M 3.03125 0 "/></g></g></g></svg>