<svg xmlns="http://www.w3.org/2000/svg" width="511.786" height="351.255" id="best-buy">
  <path fill="#f1e04a" fill-rule="evenodd" stroke="#272727" stroke-miterlimit="2.613" stroke-width="2.791" d="m166.903 6.346-55.475-4.824v.965L9.081 92.198l-7.653 121.54L85.602 316.96l31.563 2.893 367.295 29.9 25.822-315.436L166.903 6.346Z"></path>
  <path fill="#fff" fill-rule="evenodd" stroke="#272727" stroke-miterlimit="2.613" stroke-width="1.395" d="M51.166 156.829A14.773 14.773 0 0 1 36.82 171.3c-8.61 0-15.3-6.751-15.3-14.471a15.172 15.172 0 0 1 15.3-15.433c7.653-.002 14.346 6.749 14.346 15.433Z"></path>
  <path fill="none" stroke="#b3465d" stroke-miterlimit="2.613" stroke-width=".947" d="M85.602 316.959Z"></path>
  <path fill="#272727" fill-rule="evenodd" d="m133.427 98.949.954-13.506 3.826.965c5.737 0 14.346 0 13.39 7.717 0 5.789-7.653 5.789-14.346 5.789l-3.824-.965Zm-44.955 54.985 59.3 4.824c22 1.928 44.952-2.9 46.866-22.188.957-11.575-6.7-19.292-20.086-24.115v-.965c11.479-1.928 17.216-9.644 18.173-17.364 1.913-22.185-22-27.974-45.912-29.9L96.122 59.4Zm44-34.728h3.826c7.653.965 18.173 1.931 18.173 9.647-.957 7.717-11.477 6.751-19.129 6.751l-4.78-.962 1.91-15.436Zm73.651-50.159 81.307 6.751-1.921 25.082-37.3-2.893-.957 9.644 34.432 2.9-1.913 24.115-34.432-2.9-.96 9.647 39.218 2.893-1.913 26.046-83.215-7.712 7.65-93.569Zm95.653 68.488 1.913 1.931c7.65 4.824 16.254 9.647 26.78 10.613 3.821 0 11.477 0 11.477-4.824.957-3.858-4.783-4.824-9.563-5.789l-8.612-1.931c-17.216-3.858-30.609-13.506-29.652-27.974 1.913-22.188 29.652-32.8 55.481-29.9a97.988 97.988 0 0 1 38.25 10.609l-14.346 23.15c-6.7-3.858-15.3-7.717-24.866-8.682-3.826-.965-9.569 0-9.569 3.858-.957 3.858 4.783 4.824 8.612 5.789l9.563 1.928c18.176 4.827 31.565 14.471 29.652 29.9-1.913 22.185-28.693 31.835-55.475 28.936-15.3-.962-32.522-5.786-45.912-11.575l16.262-26.043Z"></path>
  <path fill="#272727" fill-rule="evenodd" d="m389.766 83.516 92.78 7.717-2.87 30.87-23.91-2.9-5.739 64.635-44-3.861 5.74-64.627-24.872-.965 2.87-30.87ZM144.904 209.881l.957-13.5h2.866c6.7.962 14.346.962 14.346 7.717-.96 6.749-7.653 6.749-14.346 5.786h-3.823Zm-45.912 54.983 60.258 4.824c21.043 1.931 44.955-2.893 45.912-22.188.957-11.572-6.7-20.251-19.129-24.113v-.962c10.52-1.931 16.257-9.647 17.216-18.326 1.913-21.22-22-27.974-44.955-29.9l-51.652-3.858-7.65 94.528Zm44-34.722h3.825c7.653.962 19.129.962 18.176 9.647-.96 7.711-11.479 6.749-18.176 5.786h-4.783l.957-15.433Zm186.517-41.48-4.782 55.945c-1.913 27.011-25.823 37.624-59.3 34.728-34.435-1.931-55.478-16.4-53.565-44.373l4.783-55.951 44 3.861-3.826 53.052c-.957 6.754-.957 13.5 10.523 14.471 12.433.962 13.39-5.792 13.39-12.54l4.783-53.058 44 3.864Z"></path>
  <path fill="#272727" fill-rule="evenodd" d="m379.246 192.517 11.475 26.044h1.913a39.184 39.184 0 0 1 4.783-8.679l9.563-14.471 49.733 3.861-45.912 50.159-3.821 40.517-43.045-3.857 3.826-40.517-38.256-56.913 49.741 3.855Z"></path>
</svg>
