<svg xmlns="http://www.w3.org/2000/svg" xml:space="preserve" width="64" height="64" id="ebay">
  <path fill="#FF6C6C" d="M8.2 25.2C.7 25.2.4 31.1.5 32.6c0 0-.4 6.8 7.5 6.8 6.8 0 7.1-4.3 7.1-4.3H12s-.6 2.3-4 2.2c-4.3 0-4.5-4.3-4.5-4.3h12c.1 0 1-7.8-7.3-7.8zM3.6 31s.2-3.8 4.5-3.8 4.3 3.8 4.3 3.8H3.6z"></path>
  <path fill="#EE3B3F" d="M.5 31.7S.1 39.4 8 39.4c6.8 0 7.1-4.3 7.1-4.3H12s-.6 2.3-4 2.2c-4.3 0-4.5-4.3-4.5-4.3h12s.9-7.8-7.4-7.8M3.6 31s.2-3.8 4.5-3.8 4.3 3.8 4.3 3.8H3.6z"></path>
  <path fill="#1992DD" d="M24.2 25.3c-3.8 0-5.2 2.2-5.2 2.2V20h-3.4l.1 15.9s0 2.1-.1 3.1h2.9l.1-1.8s1.4 2.2 5.4 2.2 7.2-2.5 7.3-7c0-4.5-3.4-7.1-7.1-7.1zm-.9 12.1c-4.7.1-4.7-5-4.7-5s-.2-4.9 4.7-5c4.8-.1 4.7 5.1 4.7 5.1s0 4.8-4.7 4.9z"></path>
  <path fill="#0468B2" d="M24.2 25.3c-3.8 0-5.2 2.2-5.2 2.2V20l-3.4 3.1v12.8s0 2.1-.1 3.1h2.9l.1-1.8s1.4 2.2 5.4 2.2 7.2-2.5 7.3-7c.1-4.5-3.3-7.1-7-7.1zm-.9 12.1c-4.7.1-4.7-5-4.7-5s-.2-4.9 4.7-5c4.8-.1 4.7 5.1 4.7 5.1s0 4.8-4.7 4.9z"></path>
  <path fill="#FFCE00" d="M45 35.8c0-2.1.1-3.9 0-5.2-.1-1.5.1-5.3-6.4-5.6 0 0-6.2-.1-6.9 3.9h3.2s.2-2 3.5-1.9c3.1.1 3.6 1.6 3.6 3.5 0 0-2.6.1-3.5.1-1.6 0-7.1.2-7.6 3.6-.6 4 2.9 5.2 5.7 5.2 2.8 0 4.4-.8 5.6-2.3l.1 1.9h2.8c0-.1-.1-1.1-.1-3.2zm-7.9 1.7s-3 0-3.2-2.4c-.2-2.6 4.6-2.4 4.6-2.4h3.4c.1 0 .7 4.9-4.8 4.8z"></path>
  <path fill="#F7AB1B" d="M32 29h2.9s.2-2 3.5-1.9c3.1.1 3.6 1.6 3.6 3.5 0 0-2.6.1-3.5.1-1.6 0-7.1.2-7.6 3.6-.6 4 2.9 5.2 5.7 5.2 2.8 0 4.4-.8 5.6-2.3l.1 1.9h2.8s-.1-1-.1-3.1.1-3.9 0-5.2c-.1-1.5.2-5.3-6.3-5.6m-1.6 12.3s-3 0-3.2-2.4c-.2-2.6 4.6-2.4 4.6-2.4h3.4c.1 0 .7 4.9-4.8 4.8z"></path>
  <path fill="#85DD52" d="M43.4 26h3.5L52 36.2 57.1 26h3.2L51 44h-3.4l2.7-5z"></path>
  <path fill="#6BB745" d="m44.8 28.6 2.1-2.6L52 36.1 57.1 26h3.2L51 44h-3.4l2.7-5.1zM61.4 26.5v-.4h-.1V26h.1v-.2h.2v.2h.2v.1h-.2v.4c0 .1 0 .1.1.1h.1v.1h-.2c-.1.1-.2 0-.2-.2zM62.1 26h.2v.1c.1-.1.1-.1.3-.1.1 0 .2 0 .3.1.1-.1.2-.1.3-.1.2 0 .3.1.3.3v.5h-.2v-.4c0-.1-.1-.2-.2-.2s-.2.1-.2.2v.4h-.2v-.4c0-.1-.1-.2-.2-.2s-.2.1-.2.2v.4h-.2V26z"></path>
  <path fill="#C60C1E" d="M12.1 29.4c.4.8.4 1.6.4 1.6H3.6s0-2.2 2-3.2c-2 .3-3.7 1.3-5 2.8-.2.8-.2 1.6-.2 2 0 0-.4 6.8 7.5 6.8 5.8 0 6.9-3.1 7.1-4v-.3h-3.1s-.6 2.3-4 2.2c-4.2 0-4.4-4.3-4.4-4.3h11.1c-.5-1-1.4-2.7-2.5-3.6z"></path>
  <path fill="#064C91" d="M30.5 35.6c-.1-2.5-1.5-4.8-3.4-6.2.9 1.4.8 3.2.8 3.2s.1 4.9-4.7 4.9c-4.7.1-4.7-5-4.7-5s-.1-3.3 2.5-4.5c-2.3.3-4.2 1.6-5.5 3.4v4.7s0 2.1-.1 3.1h2.9l.1-1.8s1.4 2.2 5.4 2.2c3-.2 5.6-1.5 6.7-4z"></path>
  <g fill="#F48D1C">
    <path d="M45 35.8v-4.4c-.9-1.3-2.1-2.4-3.6-3 .5.6.5 1.3.5 2.2 0 0-2.6.1-3.5.1-1.6 0-7.1.2-7.6 3.6-.6 4 2.9 5.2 5.7 5.2 2.8 0 4.4-.8 5.6-2.3l.1 1.9H45c.1-.2 0-1.2 0-3.3zm-7.9 1.7s-3 0-3.2-2.4c-.2-2.6 4.6-2.4 4.6-2.4h3.4c.1 0 .7 4.9-4.8 4.8zM33.4 29H35s.2-.6.7-1.1c-.9.2-1.7 1.1-2.3 1.1z"></path>
  </g>
  <path fill="#4A9E19" d="m51 44 6.5-12.6c-.6-.8-1.3-1.5-2-2.1L52 36l-4-7.7c-.9.4-1.7 1-2.4 1.7l4.7 9-2.7 5H51z"></path>
</svg>
